<svg width="587" height="633" xmlns="http://www.w3.org/2000/svg" xmlns:xlink="http://www.w3.org/1999/xlink" xml:space="preserve" overflow="hidden"><g transform="translate(-2305 -352)"><g><path d="M2533.5 725.5C2533.5 689.601 2562.6 660.5 2598.5 660.5 2634.4 660.5 2663.5 689.601 2663.5 725.5 2663.5 761.399 2634.4 790.5 2598.5 790.5 2562.6 790.5 2533.5 761.399 2533.5 725.5Z" stroke="#5B9BD5" stroke-width="4.58333" stroke-linecap="butt" stroke-linejoin="miter" stroke-miterlimit="8" stroke-opacity="1" fill="#5B9BD5" fill-rule="evenodd" fill-opacity="1"/><path d="M0 0 204.069 169.795" stroke="#5B9BD5" stroke-width="20.625" stroke-linecap="butt" stroke-linejoin="miter" stroke-miterlimit="8" stroke-opacity="1" fill="none" fill-rule="evenodd" transform="matrix(1 0 0 -1 2348.5 941.295)"/><path d="M2809.5 717.5C2809.5 695.961 2826.96 678.5 2848.5 678.5 2870.04 678.5 2887.5 695.961 2887.5 717.5 2887.5 739.039 2870.04 756.5 2848.5 756.5 2826.96 756.5 2809.5 739.039 2809.5 717.5Z" stroke="#5B9BD5" stroke-width="4.58333" stroke-linecap="butt" stroke-linejoin="miter" stroke-miterlimit="8" stroke-opacity="1" fill="#5B9BD5" fill-rule="evenodd" fill-opacity="1"/><path d="M2309.5 941.5C2309.5 919.961 2326.96 902.5 2348.5 902.5 2370.04 902.5 2387.5 919.961 2387.5 941.5 2387.5 963.039 2370.04 980.5 2348.5 980.5 2326.96 980.5 2309.5 963.039 2309.5 941.5Z" stroke="#5B9BD5" stroke-width="4.58333" stroke-linecap="butt" stroke-linejoin="miter" stroke-miterlimit="8" stroke-opacity="1" fill="#5B9BD5" fill-rule="evenodd" fill-opacity="1"/><path d="M0 0 185.042 9.51348" stroke="#5B9BD5" stroke-width="20.625" stroke-linecap="butt" stroke-linejoin="miter" stroke-miterlimit="8" stroke-opacity="1" fill="none" fill-rule="evenodd" transform="matrix(1 0 0 -1 2663.5 725.013)"/><path d="M2598.45 660.084 2587.5 436.5" stroke="#5B9BD5" stroke-width="20.625" stroke-linecap="butt" stroke-linejoin="miter" stroke-miterlimit="8" stroke-opacity="1" fill="none" fill-rule="evenodd"/><path d="M2548.5 397.5C2548.5 375.961 2565.96 358.5 2587.5 358.5 2609.04 358.5 2626.5 375.961 2626.5 397.5 2626.5 419.039 2609.04 436.5 2587.5 436.5 2565.96 436.5 2548.5 419.039 2548.5 397.5Z" stroke="#5B9BD5" stroke-width="4.58333" stroke-linecap="butt" stroke-linejoin="miter" stroke-miterlimit="8" stroke-opacity="1" fill="#5B9BD5" fill-rule="evenodd" fill-opacity="1"/></g></g></svg>